<?xml version="1.0" encoding="UTF-8" standalone="no"?>
<svg
   xmlns:dc="http://purl.org/dc/elements/1.1/"
   xmlns:cc="http://creativecommons.org/ns#"
   xmlns:rdf="http://www.w3.org/1999/02/22-rdf-syntax-ns#"
   xmlns:svg="http://www.w3.org/2000/svg"
   xmlns="http://www.w3.org/2000/svg"
   xmlns:xlink="http://www.w3.org/1999/xlink"
   xmlns:sodipodi="http://sodipodi.sourceforge.net/DTD/sodipodi-0.dtd"
   xmlns:inkscape="http://www.inkscape.org/namespaces/inkscape"
   viewBox="0 0 600 60"
   height="60"
   width="600"
   id="svg4225"
   version="1.1"
   inkscape:version="0.91 r13725"
   sodipodi:docname="spritesheet.svg"
   inkscape:export-filename="~/images/draw/spritesheet-2x.png"
   inkscape:export-xdpi="90"
   inkscape:export-ydpi="90">
  <metadata
     id="metadata4258">
    <rdf:RDF>
      <cc:Work
         rdf:about="">
        <dc:format>image/svg+xml</dc:format>
        <dc:type
           rdf:resource="http://purl.org/dc/dcmitype/StillImage" />
        <dc:title />
      </cc:Work>
    </rdf:RDF>
  </metadata>
  <defs
     id="defs4256" />
  <sodipodi:namedview
     pagecolor="#ffffff"
     bordercolor="#666666"
     borderopacity="1"
     objecttolerance="10"
     gridtolerance="10"
     guidetolerance="10"
     inkscape:pageopacity="0"
     inkscape:pageshadow="2"
     inkscape:window-width="1920"
     inkscape:window-height="1056"
     id="namedview4254"
     showgrid="false"
     inkscape:zoom="1.3101852"
     inkscape:cx="237.56928"
     inkscape:cy="7.2419621"
     inkscape:window-x="1920"
     inkscape:window-y="24"
     inkscape:window-maximized="1"
     inkscape:current-layer="svg4225" />
  <g
     id="enabled"
     style="fill:#464646;fill-opacity:1">
    <g
       id="polyline"
       style="fill:#464646;fill-opacity:1">
      <path
         d="m 18,36 0,6 6,0 0,-6 -6,0 z m 4,4 -2,0 0,-2 2,0 0,2 z"
         id="path4229"
         inkscape:connector-curvature="0"
         style="fill:#464646;fill-opacity:1" />
      <path
         d="m 36,18 0,6 6,0 0,-6 -6,0 z m 4,4 -2,0 0,-2 2,0 0,2 z"
         id="path4231"
         inkscape:connector-curvature="0"
         style="fill:#464646;fill-opacity:1" />
      <path
         d="m 23.142,39.145 -2.285,-2.29 16,-15.998 2.285,2.285 z"
         id="path4233"
         inkscape:connector-curvature="0"
         style="fill:#464646;fill-opacity:1" />
    </g>
    <g fill="#464646" id="polygon">
      <g stroke="null" id="svg_1">
        <path d="m103.471039,18.918381l-3.272469,24.736469l-23.160233,4.34515l-11.038338,-22.062672l16.335808,-17.969389l21.135231,10.95043l0,0.000011z" stroke="null" fill="#464646" id="svg_2"/>
        <path d="m109.501579,17.47422l-27.242676,25.83564c0,0 -13.939682,3.994549 -14.57634,3.382481s3.183304,-14.335213 3.183304,-14.335213l27.242699,-25.835718c1.306854,-1.28858 3.417877,-1.28858 4.724724,0l6.668221,6.442789c1.306938,1.224131 1.306938,3.253672 0.000076,4.510031l-0.000008,-0.00001z" stroke="null" fill="#2394bc" id="svg_6"/>
        <path d="m73.24498,35.578491l29.923424,-28.76712l-0.335022,-0.322111c-1.306854,-1.256359 -3.417892,-1.256359 -4.724724,0.03223l-27.209267,25.867861c0,0 -0.067039,0.25774 -0.20105,0.708748l2.546638,2.480392l0,0z" stroke="null" fill="#44a4c6" id="svg_7"/>
        <path d="m110.27224,16.41114c0.469147,-1.15966 0.234604,-2.54492 -0.737198,-3.47909l-0.670204,-0.644281l-29.92334,28.76712l2.613701,2.480469c0.368568,-0.09668 0.603142,-0.161049 0.70369,-0.193287c0,0 28.013351,-26.930931 28.013351,-26.930931z" stroke="null" fill="#1f85a9" id="svg_8"/>
        <path d="m67.64904,46.595741l0.20105,0.193287c1.574921,0.225502 13.671593,-3.221447 14.408798,-3.446957l0.033524,-0.032211c0,0 -0.770653,-3.479099 -1.440842,-4.09116c-0.670189,-0.644279 -3.585487,-0.740879 -4.255592,-1.353031c-0.670189,-0.644279 -0.737228,-3.44693 -1.440857,-4.091141c-0.670174,-0.644279 -4.088043,-1.320808 -4.255569,-1.353027c-0.000168,-0.032143 -3.518608,12.563488 -3.250519,14.174248l0,0l0.000008,-0.000008z" stroke="null" fill="#ffcaba" id="svg_9"/>
        <path d="m67.615517,46.434608c0.234573,-0.386559 1.40741,-2.383877 7.506012,-12.660088c-0.670166,-0.644279 -4.088036,-1.320812 -4.255569,-1.353031c0.033432,-0.032139 -3.283958,11.88707 -3.250443,14.013119z" stroke="null" fill="#ffdcd2" id="svg_10"/>
        <path d="m67.615517,46.466839l0,0.09668l0.20105,0.193291c1.574921,0.225502 13.67157,-3.221451 14.408821,-3.446938l0.033516,-0.03223c0,0 -0.737213,-3.446941 -1.407402,-4.09116c-11.091431,6.120678 -12.934364,7.119297 -13.23597,7.280357l-0.000015,0z" stroke="null" fill="#e5b5a7" id="svg_11"/>
        <path d="m69.927681,44.24411c-0.435623,-0.418789 -1.13932,-0.740891 -1.843033,-0.80534c-0.368568,1.80394 -0.603142,3.124771 -0.4021,3.318039c0.167534,0.161049 1.440865,-0.03223 3.116364,-0.386559c0,-0.80534 -0.368652,-1.642902 -0.871231,-2.126141z" stroke="null" fill="#2394bc" id="svg_12"/>
      </g>
    </g>
    <path
       id="rectangle"
       d="m 140,20 20,0 0,20 -20,0 z"
       inkscape:connector-curvature="0"
       style="fill:#464646;fill-opacity:1" />
    <path
       id="circle"
       d="m 221,30 c 0,6.078 -4.926,11 -11,11 -6.074,0 -11,-4.922 -11,-11 0,-6.074 4.926,-11 11,-11 6.074,0 11,4.926 11,11 z"
       inkscape:connector-curvature="0"
       style="fill:#464646;fill-opacity:1" />
    <path
       id="marker"
       d="m 270,19 c -4.971,0 -9,4.029 -9,9 0,4.971 5.001,12 9,14 4.001,-2 9,-9.029 9,-14 0,-4.971 -4.029,-9 -9,-9 z m 0,12.5 c -2.484,0 -4.5,-2.014 -4.5,-4.5 0,-2.484 2.016,-4.5 4.5,-4.5 2.485,0 4.5,2.016 4.5,4.5 0,2.486 -2.015,4.5 -4.5,4.5 z"
       inkscape:connector-curvature="0"
       style="fill:#464646;fill-opacity:1" />
    <g
       id="edit"
       style="fill:#464646;fill-opacity:1">
      <path
         d="m 337,30.156 0,0.407 0,5.604 c 0,1.658 -1.344,3 -3,3 l -10,0 c -1.655,0 -3,-1.342 -3,-3 l 0,-10 c 0,-1.657 1.345,-3 3,-3 l 6.345,0 3.19,-3.17 -9.535,0 c -3.313,0 -6,2.687 -6,6 l 0,10 c 0,3.313 2.687,6 6,6 l 10,0 c 3.314,0 6,-2.687 6,-6 l 0,-8.809 -3,2.968"
         id="path4240"
         inkscape:connector-curvature="0"
         style="fill:#464646;fill-opacity:1" />
      <path
         d="m 338.72,24.637 -8.892,8.892 -2.828,0 0,-2.829 8.89,-8.89 z"
         id="path4242"
         inkscape:connector-curvature="0"
         style="fill:#464646;fill-opacity:1" />
      <path
         d="m 338.697,17.826 4,0 0,4 -4,0 z"
         transform="matrix(-0.70698336,-0.70723018,0.70723018,-0.70698336,567.55917,274.78273)"
         id="path4244"
         inkscape:connector-curvature="0"
         style="fill:#464646;fill-opacity:1" />
    </g>
    <g
       id="remove"
       style="fill:#464646;fill-opacity:1">
      <path
         d="m 381,42 18,0 0,-18 -18,0 0,18 z m 14,-16 2,0 0,14 -2,0 0,-14 z m -4,0 2,0 0,14 -2,0 0,-14 z m -4,0 2,0 0,14 -2,0 0,-14 z m -4,0 2,0 0,14 -2,0 0,-14 z"
         id="path4247"
         inkscape:connector-curvature="0"
         style="fill:#464646;fill-opacity:1" />
      <path
         d="m 395,20 0,-4 -10,0 0,4 -6,0 0,2 22,0 0,-2 -6,0 z m -2,0 -6,0 0,-2 6,0 0,2 z"
         id="path4249"
         inkscape:connector-curvature="0"
         style="fill:#464646;fill-opacity:1" />
    </g>
  </g>
  <g
     id="disabled"
     transform="translate(120,0)"
     style="fill:#bbbbbb">
    <use
       xlink:href="#edit"
       id="edit-disabled"
       x="0"
       y="0"
       width="100%"
       height="100%" />
    <use
       xlink:href="#remove"
       id="remove-disabled"
       x="0"
       y="0"
       width="100%"
       height="100%" />
  </g>
  <path
     style="fill:none;stroke:#464646;stroke-width:2;stroke-miterlimit:4;stroke-dasharray:none;stroke-opacity:1"
     id="circle-3"
     d="m 581.65725,30 c 0,6.078 -4.926,11 -11,11 -6.074,0 -11,-4.922 -11,-11 0,-6.074 4.926,-11 11,-11 6.074,0 11,4.926 11,11 z"
     inkscape:connector-curvature="0" />
</svg>
